<svg xmlns="http://www.w3.org/2000/svg" width="282" height="283" viewBox="0 0 282 283">
  <g id="Groupe_1280" data-name="Groupe 1280" transform="translate(-1)">
    <rect id="Rectangle_378" data-name="Rectangle 378" width="282" height="283" rx="141" transform="translate(1)" fill="#ff4546"/>
    <path id="Icon_awesome-tshirt" data-name="Icon awesome-tshirt" d="M78.639,12.022,54.383,0c-2.5,3.463-8.048,5.88-14.514,5.88S27.86,3.463,25.356,0L1.1,12.022A2.008,2.008,0,0,0,.2,14.7L7.329,28.965a2.008,2.008,0,0,0,2.679.9l7.051-3.451a1.99,1.99,0,0,1,2.865,1.794V59.8a3.982,3.982,0,0,0,3.987,3.987H55.8A3.982,3.982,0,0,0,59.79,59.8V28.193A1.994,1.994,0,0,1,62.655,26.4l7.051,3.451a1.987,1.987,0,0,0,2.678-.9L79.524,14.7a1.989,1.989,0,0,0-.885-2.679Z" transform="translate(101.221 60.66)" fill="#fff"/>
  </g>
</svg>
