<svg xmlns="http://www.w3.org/2000/svg" width="282" height="283" viewBox="0 0 282 283">
  <g id="Groupe_1281" data-name="Groupe 1281" transform="translate(-0.386)">
    <rect id="Rectangle_379" data-name="Rectangle 379" width="282" height="283" rx="141" transform="translate(0.386)" fill="#008dff"/>
    <path id="Icon_awesome-smile" data-name="Icon awesome-smile" d="M31.893.562A31.893,31.893,0,1,0,63.785,32.455,31.887,31.887,0,0,0,31.893.562Zm10.288,21.6a4.115,4.115,0,1,1-4.115,4.115A4.111,4.111,0,0,1,42.181,22.167Zm-20.576,0a4.115,4.115,0,1,1-4.115,4.115A4.111,4.111,0,0,1,21.6,22.167ZM46.656,44.055a19.21,19.21,0,0,1-29.527,0,2.059,2.059,0,0,1,3.164-2.636,15.11,15.11,0,0,0,23.2,0A2.059,2.059,0,0,1,46.656,44.055Z" transform="translate(108.871 58.174)" fill="#fff"/>
  </g>
</svg>
