<svg xmlns="http://www.w3.org/2000/svg" width="282" height="283" viewBox="0 0 282 283">
  <g id="Groupe_1283" data-name="Groupe 1283" transform="translate(-0.076)">
    <rect id="Rectangle_381" data-name="Rectangle 381" width="282" height="283" rx="141" transform="translate(0.076)" fill="#ff9945"/>
    <g id="Icon_ionic-ios-home" data-name="Icon ionic-ios-home" transform="translate(109.697 54.373)">
      <path id="Tracé_110" data-name="Tracé 110" d="M31.328,7.392a.593.593,0,0,0-.756,0L6.977,26.268a.635.635,0,0,0-.227.469V61.524a.3.3,0,0,0,.3.3H23.387a.3.3,0,0,0,.3-.3V40.349a.3.3,0,0,1,.3-.3H37.907a.3.3,0,0,1,.3.3V61.524a.3.3,0,0,0,.3.3H54.847a.3.3,0,0,0,.3-.3V26.737a.611.611,0,0,0-.227-.469Z" transform="translate(0.513 1.093)" fill="#fff"/>
      <path id="Tracé_111" data-name="Tracé 111" d="M65.494,27,36.908,4.1a3.32,3.32,0,0,0-4.144,0L20.316,14.219V7.837a.3.3,0,0,0-.3-.3H10.939a.3.3,0,0,0-.3.3V21.782L4.178,27.091A2.116,2.116,0,0,0,4,30.252a2.1,2.1,0,0,0,1.5.62A2.131,2.131,0,0,0,6.825,30.4L34.639,8.018a.271.271,0,0,1,.2-.06.366.366,0,0,1,.2.06L62.847,30.312a2.131,2.131,0,0,0,1.331.469,2.146,2.146,0,0,0,2.133-2.238A2.149,2.149,0,0,0,65.494,27Z" transform="translate(-3.374 -3.375)" fill="#fff"/>
    </g>
  </g>
</svg>
