<svg id="Groupe_44" data-name="Groupe 44" xmlns="http://www.w3.org/2000/svg" width="49.725" height="51" viewBox="0 0 49.725 51">
  <path id="Tracé_3" data-name="Tracé 3" d="M24.862,0C38.594,0,49.725,11.417,49.725,25.5S38.594,51,24.862,51,0,39.583,0,25.5,11.131,0,24.862,0Z" fill="#fff"/>
  <path id="Icon_awesome-youtube" data-name="Icon awesome-youtube" d="M34.281,8.234a4.265,4.265,0,0,0-3-3.02C28.634,4.5,18.02,4.5,18.02,4.5s-10.613,0-13.26.714a4.265,4.265,0,0,0-3,3.02,44.738,44.738,0,0,0-.709,8.222,44.738,44.738,0,0,0,.709,8.222,4.2,4.2,0,0,0,3,2.972c2.647.714,13.26.714,13.26.714s10.613,0,13.26-.714a4.2,4.2,0,0,0,3-2.972,44.738,44.738,0,0,0,.709-8.222,44.738,44.738,0,0,0-.709-8.222ZM14.549,21.5V11.41l8.871,5.047L14.549,21.5Z" transform="translate(6.019 9.044)" fill="#ff4545"/>
</svg>
