<svg xmlns="http://www.w3.org/2000/svg" width="1974.907" height="708.001" viewBox="0 0 1974.907 708.001">
  <g id="Groupe_1113" data-name="Groupe 1113" transform="translate(38.729 -2197)">
    <rect id="Rectangle_190" data-name="Rectangle 190" width="1920" height="708" transform="translate(0 2197)" fill="#fbfbfb"/>
    <path id="Soustraction_3" data-name="Soustraction 3" d="M5189.275,772h-80.547a22.873,22.873,0,0,1,10.648-13.717l72.291-41.735a22.988,22.988,0,0,1,31.418,8.418l.415.717a22.981,22.981,0,0,1-8.419,31.418Zm1309.138-81.685a39.067,39.067,0,0,1-19.174-5.041,38.831,38.831,0,0,1-.283-67.447L6599.4,548.292a38.843,38.843,0,1,1,38.841,67.279L6517.8,685.106a38.686,38.686,0,0,1-19.386,5.21Zm-892.542-6.5a8.313,8.313,0,0,1-7.211-4.162,8.319,8.319,0,0,1,3.043-11.365l25-14.432a8.321,8.321,0,0,1,8.32,14.412l-25,14.43A8.352,8.352,0,0,1,5605.872,683.816ZM5970.25,682a17.066,17.066,0,0,1-14.8-8.543,17.077,17.077,0,0,1,6.251-23.329l52.723-30.439a17.078,17.078,0,0,1,17.078,29.58l-52.725,30.439A17.08,17.08,0,0,1,5970.25,682Zm878.865-82.881a16.07,16.07,0,0,1-13.938-8.043,16.078,16.078,0,0,1,5.885-21.963l50.992-29.439a16.077,16.077,0,1,1,16.077,27.847l-50.992,29.439A16.081,16.081,0,0,1,6849.116,599.119ZM5278.637,442.506a57.4,57.4,0,0,1-28.174-7.407,57.006,57.006,0,0,1-28.824-53.653,57.242,57.242,0,0,1,11.408-30.465,56.73,56.73,0,0,1,17-14.992l172.234-99.441a57.078,57.078,0,1,1,57.078,98.862l-172.234,99.44a56.824,56.824,0,0,1-28.486,7.657ZM4979.425,279.321a38.326,38.326,0,0,1-18.812-4.945,38.1,38.1,0,0,1-.279-66.174l115-66.393a38.109,38.109,0,1,1,38.108,66.008l-115,66.393a37.941,37.941,0,0,1-19.018,5.111Zm1779.488-9.284a8.319,8.319,0,0,1-7.213-4.16,8.322,8.322,0,0,1,3.046-11.366l25-14.43a8.319,8.319,0,0,1,8.318,14.41l-25,14.43A8.307,8.307,0,0,1,6758.913,270.037Zm-958.948-100.1a17.066,17.066,0,0,1-14.806-8.541,17.077,17.077,0,0,1,6.251-23.328l52.725-30.441a17.077,17.077,0,0,1,17.077,29.578l-52.723,30.441A17.076,17.076,0,0,1,5799.964,169.939ZM6531.943,127a29.06,29.06,0,0,1-25.209-14.543,29.056,29.056,0,0,1,10.644-39.722L6532.507,64h110.709a28.823,28.823,0,0,1-9.4,8.661l-87.365,50.44A29.077,29.077,0,0,1,6531.943,127Z" transform="translate(-4980 2133)" fill="#fff"/>
  </g>
</svg>
