<svg xmlns="http://www.w3.org/2000/svg" xmlns:xlink="http://www.w3.org/1999/xlink" width="1223" height="207" viewBox="0 0 1223 207">
  <defs>
    <filter id="Rectangle_332" x="0" y="0" width="1223" height="207" filterUnits="userSpaceOnUse">
      <feOffset dy="5" input="SourceAlpha"/>
      <feGaussianBlur stdDeviation="7.5" result="blur"/>
      <feFlood flood-opacity="0.161"/>
      <feComposite operator="in" in2="blur"/>
      <feComposite in="SourceGraphic"/>
    </filter>
  </defs>
  <g id="Groupe_1215" data-name="Groupe 1215" transform="translate(-467.499 -3660.5)">
    <g transform="matrix(1, 0, 0, 1, 467.5, 3660.5)" filter="url(#Rectangle_332)">
      <rect id="Rectangle_332-2" data-name="Rectangle 332" width="1178" height="162" rx="33" transform="translate(22.5 17.5)" fill="#ffd8d8"/>
    </g>
    <path id="Soustraction_7" data-name="Soustraction 7" d="M1005.334,162h-199.3c-.235-.139-.483-.271-.737-.392a10.453,10.453,0,0,0-8.911.032l-.739.359H105.829a5.966,5.966,0,0,0-.539-1.131,6.551,6.551,0,0,0-5.589-3.044,6.739,6.739,0,0,0-3.216.816L90.322,162H34.332C15.4,162,0,147.644,0,130V32A31.1,31.1,0,0,1,10.647,8.855,33.505,33.505,0,0,1,21.233,2.4,36.45,36.45,0,0,1,34.332,0H276.99a4.887,4.887,0,0,0-.775.338L261.7,8.249A4.439,4.439,0,0,0,259.494,11a4.2,4.2,0,0,0,.485,3.315,4.775,4.775,0,0,0,4.075,2.22,4.908,4.908,0,0,0,2.346-.6l14.516-7.911a4.442,4.442,0,0,0,2.2-2.749,4.192,4.192,0,0,0-.485-3.314A4.659,4.659,0,0,0,280.137,0H457.9a7.422,7.422,0,0,0,.733,1.593,8.136,8.136,0,0,0,6.941,3.78,8.368,8.368,0,0,0,4-1.014l8-4.359h666.1C1162.6,0,1178,14.355,1178,32V72.37a20.147,20.147,0,0,0-8.965,2.434l-51.676,28.434a16.714,16.714,0,0,0-5.169,4.332,13.744,13.744,0,0,0-2.632,5.488,12.806,12.806,0,0,0,2.483,10.734c3.21,4.183,8.681,6.68,14.636,6.68a20.172,20.172,0,0,0,9.708-2.447l41.616-22.9V130c0,17.645-15.4,32-34.331,32H1020.776l8.743-4.249a4.56,4.56,0,0,0,2.495-2.819,3.821,3.821,0,0,0-.564-3.244,4.981,4.981,0,0,0-2.073-1.688,6.135,6.135,0,0,0-4.994,0l-.136.064-16.28,7.911a4.555,4.555,0,0,0-2.494,2.819,3.76,3.76,0,0,0-.139,1.207ZM217.5,142a2.4,2.4,0,0,0-1.143.29l-6.881,3.751a2.168,2.168,0,0,0-1.075,1.339,2.039,2.039,0,0,0,.237,1.614A2.264,2.264,0,0,0,210,150a2.4,2.4,0,0,0,1.245,0h0a2.355,2.355,0,0,0,.521-.209l6.882-3.75a2.163,2.163,0,0,0,1.075-1.338,2.044,2.044,0,0,0-.236-1.614A2.33,2.33,0,0,0,217.5,142Zm107.947-9.185a4.921,4.921,0,0,0-2.345.6l-14.515,7.911a4.443,4.443,0,0,0-2.206,2.749,4.2,4.2,0,0,0,.485,3.315,4.777,4.777,0,0,0,4.076,2.22,4.911,4.911,0,0,0,2.346-.6L327.8,141.1a4.438,4.438,0,0,0,2.2-2.748,4.2,4.2,0,0,0-.483-3.316A4.78,4.78,0,0,0,325.443,132.819Zm143.286-17.278a9.5,9.5,0,0,0-4.54,1.152l-28.207,15.372a8.6,8.6,0,0,0-4.267,5.317,8.123,8.123,0,0,0,.937,6.413,8.86,8.86,0,0,0,3.4,3.181,9.562,9.562,0,0,0,9.03-.038l28.207-15.373a8.593,8.593,0,0,0,4.267-5.317,8.12,8.12,0,0,0-.938-6.413,8.855,8.855,0,0,0-3.4-3.181A9.574,9.574,0,0,0,468.729,115.541Zm262.052,7.912a2.939,2.939,0,0,0-1.281.29l-7.718,3.751a2.22,2.22,0,0,0-1.216,1.372,1.861,1.861,0,0,0,.275,1.58,2.7,2.7,0,0,0,2.228,1.082,2.947,2.947,0,0,0,1.282-.29l7.718-3.751a2.221,2.221,0,0,0,1.215-1.372,1.86,1.86,0,0,0-.275-1.58A2.7,2.7,0,0,0,730.781,123.453ZM981.138,112.06a4.621,4.621,0,0,0-2.209.561l-14.038,7.65a4.183,4.183,0,0,0-2.076,2.588,3.953,3.953,0,0,0,.455,3.12,4.5,4.5,0,0,0,3.838,2.091,4.628,4.628,0,0,0,2.21-.561l14.039-7.651a4.178,4.178,0,0,0,2.075-2.587,3.947,3.947,0,0,0-.456-3.12A4.5,4.5,0,0,0,981.138,112.06Zm-414.208,0a4.619,4.619,0,0,0-2.209.561l-14.039,7.65a4.183,4.183,0,0,0-2.075,2.588,3.953,3.953,0,0,0,.455,3.12,4.5,4.5,0,0,0,3.837,2.091,4.628,4.628,0,0,0,2.209-.561l14.039-7.651a4.18,4.18,0,0,0,2.076-2.587,3.948,3.948,0,0,0-.456-3.12A4.5,4.5,0,0,0,566.93,112.06ZM19.4,102.005a2.388,2.388,0,0,0-1.143.291l-6.882,3.75a2.162,2.162,0,0,0-1.074,1.337A2.05,2.05,0,0,0,10.535,109a2.327,2.327,0,0,0,1.986,1.082,2.409,2.409,0,0,0,1.142-.291l6.882-3.75a2.168,2.168,0,0,0,1.074-1.339,2.043,2.043,0,0,0-.237-1.615A2.322,2.322,0,0,0,19.4,102.005ZM155.722,46.136a7.975,7.975,0,0,0-3.806.966L128.9,59.646a7.211,7.211,0,0,0-3.578,4.46,6.811,6.811,0,0,0,.786,5.377,7.748,7.748,0,0,0,6.612,3.6,7.974,7.974,0,0,0,3.808-.967l23.017-12.544a7.208,7.208,0,0,0,3.577-4.458,6.815,6.815,0,0,0-.786-5.378A7.753,7.753,0,0,0,155.722,46.136ZM69.79,7.892a10.968,10.968,0,0,0-5.235,1.328L32.894,26.475a9.91,9.91,0,0,0-4.921,6.132A9.367,9.367,0,0,0,29.054,40a10.217,10.217,0,0,0,3.918,3.669,11.034,11.034,0,0,0,5.174,1.284h.005a10.962,10.962,0,0,0,5.235-1.328L75.045,26.375a9.918,9.918,0,0,0,4.922-6.133,9.373,9.373,0,0,0-1.081-7.4,10.221,10.221,0,0,0-3.918-3.668A11.043,11.043,0,0,0,69.79,7.892ZM534.944,34.47a2.389,2.389,0,0,0-1.143.29l-6.883,3.75a2.169,2.169,0,0,0-1.074,1.339,2.044,2.044,0,0,0,.237,1.614,2.326,2.326,0,0,0,1.986,1.082,2.392,2.392,0,0,0,1.142-.29l6.881-3.75a2.165,2.165,0,0,0,1.075-1.339,2.045,2.045,0,0,0-.236-1.615A2.326,2.326,0,0,0,534.944,34.47ZM974.3,16.391a6.053,6.053,0,0,0-2.631.595L955.387,24.9a4.55,4.55,0,0,0-2.493,2.817,3.822,3.822,0,0,0,.563,3.245,5.541,5.541,0,0,0,4.571,2.22,6.045,6.045,0,0,0,2.631-.6l16.28-7.911a4.559,4.559,0,0,0,2.494-2.819,3.823,3.823,0,0,0-.564-3.244,5.539,5.539,0,0,0-4.568-2.219Zm112.51-.473a2.945,2.945,0,0,0-1.281.29l-7.718,3.75a2.221,2.221,0,0,0-1.216,1.374,1.861,1.861,0,0,0,.275,1.58,2.7,2.7,0,0,0,2.227,1.082,2.946,2.946,0,0,0,1.282-.291l7.719-3.75a2.219,2.219,0,0,0,1.214-1.372,1.863,1.863,0,0,0-.275-1.581A2.7,2.7,0,0,0,1086.808,15.918ZM624.537,6.743a5.711,5.711,0,0,0-2.477.561l-15.746,7.651a4.289,4.289,0,0,0-2.347,2.653,3.6,3.6,0,0,0,.53,3.055,5.219,5.219,0,0,0,4.3,2.09,5.709,5.709,0,0,0,2.479-.561l15.745-7.651a4.29,4.29,0,0,0,2.348-2.654,3.6,3.6,0,0,0-.531-3.054A5.22,5.22,0,0,0,624.537,6.743ZM810.05.346a7.744,7.744,0,0,0-3.366.761L785.77,11.27a5.827,5.827,0,0,0-3.19,3.605,4.887,4.887,0,0,0,.721,4.149,7.092,7.092,0,0,0,5.848,2.839,7.734,7.734,0,0,0,3.366-.761L813.429,10.94a5.828,5.828,0,0,0,3.19-3.605,4.888,4.888,0,0,0-.723-4.149A7.085,7.085,0,0,0,810.05.346Z" transform="translate(489.999 3678)" fill="#fff"/>
  </g>
</svg>
