<svg xmlns="http://www.w3.org/2000/svg" xmlns:xlink="http://www.w3.org/1999/xlink" width="437.715" height="254.354" viewBox="0 0 437.715 254.354">
  <defs>
    <filter id="Rectangle_369" x="0" y="0" width="437.715" height="233.231" filterUnits="userSpaceOnUse">
      <feOffset dy="3" input="SourceAlpha"/>
      <feGaussianBlur stdDeviation="15" result="blur"/>
      <feFlood flood-opacity="0.161"/>
      <feComposite operator="in" in2="blur"/>
      <feComposite in="SourceGraphic"/>
    </filter>
    <filter id="Polygone_18" x="156.994" y="122.108" width="140.136" height="132.246" filterUnits="userSpaceOnUse">
      <feOffset dy="3" input="SourceAlpha"/>
      <feGaussianBlur stdDeviation="15" result="blur-2"/>
      <feFlood flood-opacity="0.161"/>
      <feComposite operator="in" in2="blur-2"/>
      <feComposite in="SourceGraphic"/>
    </filter>
  </defs>
  <g id="Groupe_1287" data-name="Groupe 1287" transform="translate(-970.58 -8904.174)">
    <g transform="matrix(1, 0, 0, 1, 970.58, 8904.17)" filter="url(#Rectangle_369)">
      <path id="Rectangle_369-2" data-name="Rectangle 369" d="M36,0H311.715a36,36,0,0,1,36,36V143.232a0,0,0,0,1,0,0H0a0,0,0,0,1,0,0V36A36,36,0,0,1,36,0Z" transform="translate(45 42)" fill="#333"/>
    </g>
    <g transform="matrix(1, 0, 0, 1, 970.58, 8904.17)" filter="url(#Polygone_18)">
      <path id="Polygone_18-2" data-name="Polygone 18" d="M25.068,0,50.136,42.246H0Z" transform="translate(252.13 206.35) rotate(180)" fill="#333"/>
    </g>
  </g>
</svg>
