<svg xmlns="http://www.w3.org/2000/svg" width="27.906" height="27.905" viewBox="0 0 27.906 27.905">
  <path id="Icon_awesome-linkedin-in" data-name="Icon awesome-linkedin-in" d="M6.246,27.906H.461V9.275H6.246ZM3.351,6.734A3.366,3.366,0,1,1,6.7,3.351,3.379,3.379,0,0,1,3.351,6.734ZM27.9,27.906H22.127V18.837c0-2.161-.044-4.933-3.008-4.933-3.008,0-3.469,2.348-3.469,4.778v9.225H9.87V9.275h5.549v2.541H15.5a6.079,6.079,0,0,1,5.474-3.009c5.855,0,6.932,3.856,6.932,8.864V27.906Z" transform="translate(0 -0.001)" fill="#ff4545"/>
</svg>
