<svg xmlns="http://www.w3.org/2000/svg" width="63.785" height="63.785" viewBox="0 0 63.785 63.785">
  <path id="Icon_awesome-smile" data-name="Icon awesome-smile" d="M31.893.562A31.893,31.893,0,1,0,63.785,32.455,31.887,31.887,0,0,0,31.893.562Zm10.288,21.6a4.115,4.115,0,1,1-4.115,4.115A4.111,4.111,0,0,1,42.181,22.167Zm-20.576,0a4.115,4.115,0,1,1-4.115,4.115A4.111,4.111,0,0,1,21.6,22.167ZM46.656,44.055a19.21,19.21,0,0,1-29.527,0,2.059,2.059,0,0,1,3.164-2.636,15.11,15.11,0,0,0,23.2,0A2.059,2.059,0,0,1,46.656,44.055Z" transform="translate(0 -0.563)" fill="#fff"/>
</svg>
