<svg xmlns="http://www.w3.org/2000/svg" width="31.978" height="28.117" viewBox="0 0 31.978 28.117">
  <path id="Icon_awesome-key" data-name="Icon awesome-key" d="M31.978,9.665c0,5.338-4.922,9.665-10.993,9.665a12.523,12.523,0,0,1-2.05-.169l-1.5,1.483a1.6,1.6,0,0,1-1.12.442H13.99v2.2a1.417,1.417,0,0,1-1.5,1.318h-2.5v2.2a1.417,1.417,0,0,1-1.5,1.318h-7A1.417,1.417,0,0,1,0,26.8V22.512a1.243,1.243,0,0,1,.439-.932l10.106-8.886a8.6,8.6,0,0,1-.552-3.03C9.993,4.327,14.915,0,20.986,0,27.075,0,31.978,4.312,31.978,9.665ZM20.986,7.029a2.834,2.834,0,0,0,3,2.636,2.834,2.834,0,0,0,3-2.636,2.834,2.834,0,0,0-3-2.636A2.834,2.834,0,0,0,20.986,7.029Z" transform="translate(0 0)" fill="#ff4545"/>
</svg>
