<svg xmlns="http://www.w3.org/2000/svg" width="33.941" height="23.864" viewBox="0 0 33.941 23.864">
  <path id="Icon_awesome-youtube" data-name="Icon awesome-youtube" d="M34.281,8.234a4.265,4.265,0,0,0-3-3.02C28.634,4.5,18.02,4.5,18.02,4.5s-10.613,0-13.26.714a4.265,4.265,0,0,0-3,3.02,44.738,44.738,0,0,0-.709,8.222,44.738,44.738,0,0,0,.709,8.222,4.2,4.2,0,0,0,3,2.972c2.647.714,13.26.714,13.26.714s10.613,0,13.26-.714a4.2,4.2,0,0,0,3-2.972,44.738,44.738,0,0,0,.709-8.222,44.738,44.738,0,0,0-.709-8.222ZM14.549,21.5V11.41l8.871,5.047L14.549,21.5Z" transform="translate(-1.05 -4.5)" fill="#ff4545"/>
</svg>
