<svg xmlns="http://www.w3.org/2000/svg" width="38.762" height="35.925" viewBox="0 0 38.762 35.925">
  <path id="Icon_feather-phone" data-name="Icon feather-phone" d="M38.926,27.649V32.6a3.187,3.187,0,0,1-1.165,2.448,3.8,3.8,0,0,1-2.755.856A37.647,37.647,0,0,1,19.49,30.837,33.783,33.783,0,0,1,8.7,20.925,31.029,31.029,0,0,1,3.182,6.6a3.14,3.14,0,0,1,.926-2.525A3.747,3.747,0,0,1,6.76,3h5.394a3.515,3.515,0,0,1,3.6,2.842,19.817,19.817,0,0,0,1.259,4.642A3.113,3.113,0,0,1,16.2,13.97l-2.283,2.1A27.717,27.717,0,0,0,24.7,25.98l2.283-2.1a3.829,3.829,0,0,1,3.794-.743A24.771,24.771,0,0,0,35.833,24.3a3.4,3.4,0,0,1,3.092,3.354Z" transform="translate(-1.667 -1.5)" fill="none" stroke="#ff4545" stroke-linecap="round" stroke-linejoin="round" stroke-width="3"/>
</svg>
