<svg id="Icon_ionic-md-pricetags" data-name="Icon ionic-md-pricetags" xmlns="http://www.w3.org/2000/svg" width="30.229" height="24.679" viewBox="0 0 30.229 24.679">
  <path id="Tracé_108" data-name="Tracé 108" d="M30.474,7.523v8.365L16.116,27.973a3.3,3.3,0,0,0,1.943.73,3.639,3.639,0,0,0,2.119-.73l12.86-10.661V9.718Z" transform="translate(-2.809 -4.023)" fill="#ff4545"/>
  <path id="Tracé_109" data-name="Tracé 109" d="M26,3.375H15.2L3.08,14.5a2.3,2.3,0,0,0-.83,1.685,2.43,2.43,0,0,0,.83,1.892l8.353,7.333a3.324,3.324,0,0,0,1.943.742,3.64,3.64,0,0,0,2.112-.742L28.159,14.765V5.273ZM23.929,9.468a2.126,2.126,0,0,1-2.787-1.821,2.039,2.039,0,0,1,2.159-1.9A1.964,1.964,0,0,1,25.373,8.2,1.991,1.991,0,0,1,23.929,9.468Z" transform="translate(-2.249 -3.375)" fill="#ff4545"/>
</svg>
