<svg xmlns="http://www.w3.org/2000/svg" width="1177.999" height="111.999" viewBox="0 0 1177.999 111.999">
  <path id="Soustraction_9" data-name="Soustraction 9" d="M972.016,112H792.9a8.006,8.006,0,0,0-7.938-7h-.651a8.007,8.007,0,0,0-7.938,7H597.264a8.006,8.006,0,0,0-7.938-7h-.651a8.007,8.007,0,0,0-7.938,7H401.623a8.006,8.006,0,0,0-7.938-7h-.65a8.006,8.006,0,0,0-7.938,7H205.984a8.006,8.006,0,0,0-7.938-7h-.65a8.007,8.007,0,0,0-7.938,7H8a8.009,8.009,0,0,1-8-8V8A8.009,8.009,0,0,1,8,0H189.458A8.007,8.007,0,0,0,197.4,7h.65a8.007,8.007,0,0,0,7.938-7H385.1a8.007,8.007,0,0,0,7.938,7h.65a8.007,8.007,0,0,0,7.938-7H580.737a8.006,8.006,0,0,0,7.938,7h.65a8.007,8.007,0,0,0,7.938-7H776.376a8.007,8.007,0,0,0,7.938,7h.651A8.006,8.006,0,0,0,792.9,0H972.016a8.006,8.006,0,0,0,7.937,7h.651a8.007,8.007,0,0,0,7.938-7H1170a8.008,8.008,0,0,1,8,8v96a8.009,8.009,0,0,1-8,8H988.542a8.006,8.006,0,0,0-7.938-7h-.65a8.007,8.007,0,0,0-7.938,7Z" transform="translate(0 -0.001)" fill="#333"/>
</svg>
