<svg xmlns="http://www.w3.org/2000/svg" width="40" height="47" viewBox="0 0 40 47">
  <g id="Groupe_330" data-name="Groupe 330" transform="translate(-389.001 -1811.15)">
    <rect id="Rectangle_157" data-name="Rectangle 157" width="34" height="47" rx="6" transform="translate(389.001 1811.15)" fill="#333"/>
    <path id="Union_7" data-name="Union 7" d="M4.466,9.6,3.548,6.451.4,5.534a.556.556,0,0,1,0-1.067l3.148-.918L4.466.4A.556.556,0,0,1,5.533.4l.918,3.149L9.6,4.467a.556.556,0,0,1,0,1.067l-3.148.918L5.533,9.6a.556.556,0,0,1-1.067,0ZM.555,5,4,6,5,9.445,6,6,9.444,5,6,6,5,9.445,4,6Z" transform="translate(410.001 1844.15)" fill="#fff"/>
    <g id="Union_9" data-name="Union 9" transform="translate(417.001 1833.15)" fill="#fff" stroke-linecap="round" stroke-linejoin="round">
      <path d="M 5 11 C 4.314080238342285 11 3.700099945068359 10.54004955291748 3.506920099258423 9.8814697265625 L 2.741911172866821 7.257986545562744 L 0.1200900003314018 6.49351978302002 C -0.5399699807167053 6.30003023147583 -1 5.68602991104126 -1 5 C -1 4.31397008895874 -0.5399699807167053 3.699970006942749 0.1186999976634979 3.506880044937134 L 2.741910934448242 2.742012500762939 L 3.506469964981079 0.120059996843338 C 3.700099945068359 -0.5400500297546387 4.314080238342285 -1 5 -1 C 5.686210155487061 -1 6.300189971923828 -0.5398499965667725 6.493090152740479 0.1190100014209747 L 7.25795841217041 2.742012739181519 L 9.879790306091309 3.506479978561401 C 10.53993034362793 3.700000047683716 11 4.313990116119385 11 5 C 11 5.686009883880615 10.53993034362793 6.300000190734863 9.881190299987793 6.493110179901123 L 7.257959365844727 7.257986545562744 L 6.493400096893311 9.879940032958984 C 6.300189971923828 10.53985023498535 5.686210155487061 11 5 11 Z" stroke="none"/>
      <path d="M 5 10 C 5.246970176696777 10 5.463990211486816 9.836999893188477 5.533380031585693 9.600000381469727 L 6.451479911804199 6.451499938964844 L 9.599869728088379 5.533500194549561 C 9.836939811706543 5.464000225067139 10 5.247000217437744 10 5 C 10 4.752999782562256 9.836939811706543 4.535999774932861 9.599869728088379 4.466499805450439 L 6.451479911804199 3.548500061035156 L 5.533380031585693 0.4000000059604645 C 5.463990211486816 0.1630000025033951 5.246970176696777 0 5 0 C 4.752900123596191 0 4.536009788513184 0.1630000025033951 4.466489791870117 0.4000000059604645 L 3.548389911651611 3.548500061035156 L 0.4000099897384644 4.466499805450439 C 0.1629299968481064 4.535999774932861 0 4.752999782562256 0 5 C 0 5.247000217437744 0.1629299968481064 5.464000225067139 0.4000099897384644 5.533500194549561 L 3.548389911651611 6.451499938964844 L 4.466489791870117 9.600000381469727 C 4.536009788513184 9.836999893188477 4.752900123596191 10 5 10 M 5 9.444499969482422 L 3.996449947357178 6.003499984741211 L 0.5554800033569336 5 L 3.996449947357178 6.003499984741211 L 5 9.444499969482422 L 6.003419876098633 6.003499984741211 L 9.444390296936035 5 L 6.003419876098633 6.003499984741211 L 5 9.444499969482422 M 5 12 C 3.873199939727783 12 2.864629983901978 11.24458026885986 2.54734992980957 10.16294956207275 L 1.93544328212738 8.064486503601074 L -0.1598300039768219 7.453549861907959 C -1.244439959526062 7.135600090026855 -2 6.126999855041504 -2 5 C -2 3.872999906539917 -1.244439959526062 2.864399909973145 -0.1626099944114685 2.547270059585571 L 1.935444235801697 1.935516238212585 L 2.546459913253784 -0.1598799973726273 C 2.864629983901978 -1.244580030441284 3.873199939727783 -2 5 -2 C 6.127319812774658 -2 7.135950088500977 -1.244179964065552 7.452799797058105 -0.161980003118515 L 8.064425468444824 1.935511946678162 L 10.15970993041992 2.546449899673462 C 11.24440002441406 2.864439964294434 12 3.873039960861206 12 5 C 12 6.126959800720215 11.24440002441406 7.135560035705566 10.16250991821289 7.452730178833008 L 8.064424514770508 8.064487457275391 L 7.453410148620605 10.15987968444824 C 7.135950088500977 11.24417972564697 6.127319812774658 12 5 12 Z" stroke="none" fill="#333"/>
    </g>
    <path id="Ligne_21" data-name="Ligne 21" d="M-1.026,4.328a.971.971,0,0,1-.688-.285.974.974,0,0,1,0-1.377L2.666-1.715a.974.974,0,0,1,1.377,0,.974.974,0,0,1,0,1.377L-.338,4.043A.971.971,0,0,1-1.026,4.328Z" transform="translate(395.138 1816.549)" fill="#fff"/>
    <path id="Ligne_22" data-name="Ligne 22" d="M-1.026,10.656a.971.971,0,0,1-.688-.285.974.974,0,0,1,0-1.377L8.994-1.715a.974.974,0,0,1,1.377,0,.974.974,0,0,1,0,1.377L-.338,10.371A.971.971,0,0,1-1.026,10.656Z" transform="translate(395.381 1816.792)" fill="#fff"/>
  </g>
</svg>
