<svg xmlns="http://www.w3.org/2000/svg" width="30.064" height="30.057" viewBox="0 0 30.064 30.057">
  <path id="Icon_awesome-instagram" data-name="Icon awesome-instagram" d="M15.03,9.56a7.706,7.706,0,1,0,7.706,7.706A7.694,7.694,0,0,0,15.03,9.56Zm0,12.716a5.01,5.01,0,1,1,5.01-5.01,5.019,5.019,0,0,1-5.01,5.01ZM24.849,9.245a1.8,1.8,0,1,1-1.8-1.8A1.793,1.793,0,0,1,24.849,9.245Zm5.1,1.824a8.9,8.9,0,0,0-2.428-6.3,8.954,8.954,0,0,0-6.3-2.428c-2.482-.141-9.919-.141-12.4,0a8.941,8.941,0,0,0-6.3,2.421A8.924,8.924,0,0,0,.1,11.062c-.141,2.482-.141,9.919,0,12.4a8.9,8.9,0,0,0,2.428,6.3,8.965,8.965,0,0,0,6.3,2.428c2.482.141,9.919.141,12.4,0a8.9,8.9,0,0,0,6.3-2.428,8.954,8.954,0,0,0,2.428-6.3c.141-2.482.141-9.913,0-12.394ZM26.747,26.126a5.072,5.072,0,0,1-2.857,2.857c-1.979.785-6.673.6-8.86.6s-6.888.174-8.86-.6a5.072,5.072,0,0,1-2.857-2.857c-.785-1.979-.6-6.673-.6-8.86s-.174-6.888.6-8.86A5.072,5.072,0,0,1,6.17,5.549c1.979-.785,6.673-.6,8.86-.6s6.888-.174,8.86.6a5.072,5.072,0,0,1,2.857,2.857c.785,1.979.6,6.673.6,8.86S27.531,24.154,26.747,26.126Z" transform="translate(0.005 -2.238)" fill="#ff4545"/>
</svg>
