<svg xmlns="http://www.w3.org/2000/svg" xmlns:xlink="http://www.w3.org/1999/xlink" width="469.011" height="335.853" viewBox="0 0 469.011 335.853">
  <defs>
    <filter id="Rectangle_352" x="0" y="42.912" width="469.011" height="292.94" filterUnits="userSpaceOnUse">
      <feOffset dy="24" input="SourceAlpha"/>
      <feGaussianBlur stdDeviation="19.5" result="blur"/>
      <feFlood flood-opacity="0.161"/>
      <feComposite operator="in" in2="blur"/>
      <feComposite in="SourceGraphic"/>
    </filter>
    <linearGradient id="linear-gradient" x1="0.5" x2="0.5" y2="1" gradientUnits="objectBoundingBox">
      <stop offset="0" stop-color="#008dff"/>
      <stop offset="0.864" stop-color="#ff4545"/>
      <stop offset="1" stop-color="#ff4545"/>
    </linearGradient>
    <linearGradient id="linear-gradient-2" x1="0.5" x2="0.5" y2="1" gradientUnits="objectBoundingBox">
      <stop offset="0" stop-color="#008dff"/>
      <stop offset="0.435" stop-color="#5376c3"/>
      <stop offset="1" stop-color="#d45265"/>
    </linearGradient>
    <linearGradient id="linear-gradient-3" x1="0.5" x2="0.5" y2="0.841" gradientUnits="objectBoundingBox">
      <stop offset="0" stop-color="#008dff"/>
      <stop offset="0.75" stop-color="#cf5267"/>
      <stop offset="1" stop-color="#ea4a53"/>
    </linearGradient>
  </defs>
  <g id="Groupe_1288" data-name="Groupe 1288" transform="translate(38.5 -10589.402)">
    <g transform="matrix(1, 0, 0, 1, -38.5, 10589.4)" filter="url(#Rectangle_352)">
      <path id="Rectangle_352-2" data-name="Rectangle 352" d="M50,0H302.011a50,50,0,0,1,50,50V175.941a0,0,0,0,1,0,0H0a0,0,0,0,1,0,0V50A50,50,0,0,1,50,0Z" transform="translate(58.5 77.41)" fill="#ff4545"/>
    </g>
    <g id="Groupe_330" data-name="Groupe 330" transform="translate(259.342 10589.402)">
      <rect id="Rectangle_157" data-name="Rectangle 157" width="76.373" height="106.324" rx="15" transform="translate(0)" fill="url(#linear-gradient)"/>
      <path id="Union_9" data-name="Union 9" d="M10.033,21.564,7.971,14.492.9,12.43a1.248,1.248,0,0,1,0-2.4L7.971,7.971,10.033.9a1.248,1.248,0,0,1,2.4,0l2.062,7.072,7.072,2.062a1.248,1.248,0,0,1,0,2.4l-7.072,2.062-2.062,7.072a1.248,1.248,0,0,1-2.4,0ZM1.248,11.231l7.729,2.254,2.254,7.729,2.254-7.729,7.729-2.254-7.729,2.254-2.254,7.729L8.977,13.485Z" transform="translate(62.896 49.418)" fill="#fff"/>
      <path id="Union_11" data-name="Union 11" d="M10.033,21.564,7.971,14.492.9,12.43a1.248,1.248,0,0,1,0-2.4L7.971,7.971,10.033.9a1.248,1.248,0,0,1,2.4,0l2.062,7.072,7.072,2.062a1.248,1.248,0,0,1,0,2.4l-7.072,2.062-2.062,7.072a1.248,1.248,0,0,1-2.4,0ZM1.248,11.231l7.729,2.254,2.254,7.729,2.254-7.729,7.729-2.254-7.729,2.254-2.254,7.729L8.977,13.485Z" transform="translate(42.929 74.377)" fill="#fff"/>
      <path id="Union_9_-_Contour" data-name="Union 9 - Contour" d="M8.727,19.959a1.249,1.249,0,0,0,1.2-.9l2.062-7.072L19.06,9.926a1.248,1.248,0,0,0,0-2.4L11.988,5.467,9.925-1.606a1.249,1.249,0,0,0-1.2-.9,1.249,1.249,0,0,0-1.2.9L5.467,5.467-1.606,7.529a1.249,1.249,0,0,0-.9,1.2,1.249,1.249,0,0,0,.9,1.2l7.072,2.062L7.529,19.06a1.249,1.249,0,0,0,1.2.9m0-1.248L6.473,10.981-1.256,8.727l7.729,2.254,2.254,7.729,2.254-7.729,7.729-2.254-7.729,2.254L8.727,18.711m0,3.744a3.745,3.745,0,0,1-3.593-2.692v0L3.454,14-2.3,12.322h0a3.771,3.771,0,0,1-1.943-1.347A3.767,3.767,0,0,1-5,8.727a3.767,3.767,0,0,1,.749-2.246A3.771,3.771,0,0,1-2.308,5.134h0L3.454,3.454,5.133-2.3v0A3.771,3.771,0,0,1,6.481-4.251,3.767,3.767,0,0,1,8.727-5a3.767,3.767,0,0,1,2.246.749,3.77,3.77,0,0,1,1.347,1.944v0L14,3.454l5.758,1.679h0a3.744,3.744,0,0,1,0,7.187h0L14,14l-1.679,5.758v0a3.744,3.744,0,0,1-3.593,2.693Z" transform="translate(65.4 51.922)" fill="url(#linear-gradient-2)"/>
      <path id="Union_9_-_Contour-2" data-name="Union 9 - Contour" d="M8.727,19.959a1.249,1.249,0,0,0,1.2-.9l2.062-7.072L19.06,9.926a1.248,1.248,0,0,0,0-2.4L11.988,5.467,9.925-1.606a1.249,1.249,0,0,0-1.2-.9,1.249,1.249,0,0,0-1.2.9L5.467,5.467-1.606,7.529a1.249,1.249,0,0,0-.9,1.2,1.249,1.249,0,0,0,.9,1.2l7.072,2.062L7.529,19.06a1.249,1.249,0,0,0,1.2.9m0-1.248L6.473,10.981-1.256,8.727l7.729,2.254,2.254,7.729,2.254-7.729,7.729-2.254-7.729,2.254L8.727,18.711m0,3.744a3.745,3.745,0,0,1-3.593-2.692v0L3.454,14-2.3,12.322h0a3.771,3.771,0,0,1-1.943-1.347A3.767,3.767,0,0,1-5,8.727a3.767,3.767,0,0,1,.749-2.246A3.771,3.771,0,0,1-2.308,5.134h0L3.454,3.454,5.133-2.3v0A3.771,3.771,0,0,1,6.481-4.251,3.767,3.767,0,0,1,8.727-5a3.767,3.767,0,0,1,2.246.749,3.77,3.77,0,0,1,1.347,1.944v0L14,3.454l5.758,1.679h0a3.744,3.744,0,0,1,0,7.187h0L14,14l-1.679,5.758v0a3.744,3.744,0,0,1-3.593,2.693Z" transform="translate(45.433 76.881)" fill="url(#linear-gradient-3)"/>
      <path id="Ligne_21" data-name="Ligne 21" d="M.193,12.254a2.186,2.186,0,0,1-1.551-.642,2.193,2.193,0,0,1,0-3.1L8.51-1.358a2.193,2.193,0,0,1,3.1,3.1L1.744,11.612A2.186,2.186,0,0,1,.193,12.254Z" transform="translate(11.247 9.885)" fill="#fff"/>
      <path id="Ligne_22" data-name="Ligne 22" d="M.193,26.508a2.186,2.186,0,0,1-1.551-.642,2.193,2.193,0,0,1,0-3.1L22.764-1.358a2.193,2.193,0,0,1,3.1,3.1L1.744,25.866A2.186,2.186,0,0,1,.193,26.508Z" transform="translate(11.796 10.433)" fill="#fff"/>
    </g>
    <g id="Groupe_938" data-name="Groupe 938" transform="translate(20 10842.752)">
      <rect id="Rectangle_36" data-name="Rectangle 36" width="352.01" height="4.25" rx="2.125" transform="translate(0 0)" fill="#eee"/>
    </g>
  </g>
</svg>
