<svg xmlns="http://www.w3.org/2000/svg" width="282" height="283" viewBox="0 0 282 283">
  <g id="Groupe_1282" data-name="Groupe 1282" transform="translate(0.229 5)">
    <rect id="Rectangle_381" data-name="Rectangle 381" width="282" height="283" rx="141" transform="translate(-0.229 -5)" fill="#cd388c"/>
    <g id="Icon_ionic-ios-people" data-name="Icon ionic-ios-people" transform="translate(91.855 53.445)">
      <path id="Tracé_112" data-name="Tracé 112" d="M58.735,56.531c-2.434-.869-6.41-.913-8.17-1.586-1.217-.478-3.151-1-3.781-1.76s-.63-6.193-.63-6.193A10,10,0,0,0,48.3,43.95a33.81,33.81,0,0,0,1.043-5.976s1.434.608,2-2.26c.478-2.477,1.391-3.781,1.152-5.606-.261-1.825-1.26-1.391-1.26-1.391s1.26-1.847,1.26-8.127c0-6.475-4.889-12.842-14.037-12.842-9.126,0-14.059,6.389-14.059,12.842,0,6.28,1.239,8.127,1.239,8.127s-1.021-.435-1.26,1.391c-.261,1.825.652,3.129,1.152,5.606.565,2.89,2,2.26,2,2.26a34.136,34.136,0,0,0,1.043,5.976,10,10,0,0,0,2.151,3.042s0,5.432-.63,6.193-2.564,1.282-3.781,1.738c-1.738.674-5.715.761-8.17,1.63a15.335,15.335,0,0,0-9.952,14.6H68.665A15.305,15.305,0,0,0,58.735,56.531Z" transform="translate(10.279 -7.748)" fill="#fff"/>
      <path id="Tracé_113" data-name="Tracé 113" d="M25.792,38.718s5.193-.174,7.258-2.021c-3.368-5.106-1.543-11.06-2.238-16.623-.7-5.541-3.846-8.866-10.148-8.866h-.087c-6.084,0-9.365,3.3-10.061,8.866C9.82,25.615,11.754,32.242,8.3,36.7c2.064,1.869,7.279,1.8,7.279,1.8h0s.217,3.129-.217,3.651a5.487,5.487,0,0,1-2.608,1.2A50.418,50.418,0,0,0,7.126,44.91c-1.695.587-4.911,3.737-4.911,8.083H19.664c.478-1.738,3.759-4.846,6.953-6.475a14.591,14.591,0,0,1,5.367-1.13s.826-1.3-1.89-1.8c0,0-3.737-.934-4.172-1.456C25.509,41.651,25.792,38.718,25.792,38.718Z" transform="translate(-2.215 -0.517)" fill="#fff"/>
      <path id="Tracé_114" data-name="Tracé 114" d="M31.066,38.718s-5.193-.174-7.258-2.021c3.368-5.106,1.543-11.06,2.238-16.623.7-5.541,3.846-8.866,10.148-8.866h.087c6.084,0,9.365,3.3,10.061,8.866.7,5.541-1.239,12.169,2.216,16.623-2.064,1.869-7.279,1.8-7.279,1.8h0s-.217,3.129.217,3.651a5.487,5.487,0,0,0,2.608,1.2,50.418,50.418,0,0,1,5.628,1.565c1.695.587,4.911,3.737,4.911,8.083H37.193c-.478-1.738-3.759-4.846-6.953-6.475a14.591,14.591,0,0,0-5.367-1.13s-.826-1.3,1.89-1.8c0,0,3.738-.934,4.172-1.456C31.348,41.651,31.066,38.718,31.066,38.718Z" transform="translate(42.924 -0.517)" fill="#fff"/>
    </g>
  </g>
</svg>
