<svg xmlns="http://www.w3.org/2000/svg" width="31.576" height="24.679" viewBox="0 0 31.576 24.679">
  <path id="Icon_metro-shop" data-name="Icon metro-shop" d="M13.1,12.725l1.388-8.1H7.271L4.255,11.568a2.167,2.167,0,0,0-.142.771c0,1.7,2.017,3.085,4.51,3.085,2.3,0,4.2-1.178,4.477-2.7Zm6.8,2.7c2.491,0,4.51-1.382,4.51-3.085,0-.063-.005-.126-.009-.187L23.51,4.627H16.293L15.4,12.147c0,.063-.007.126-.007.193,0,1.7,2.019,3.085,4.51,3.085Zm8.771,1.613v6.1H11.13v-6.09a8.3,8.3,0,0,1-2.507.383,8.2,8.2,0,0,1-1-.076v9.793a2.327,2.327,0,0,0,2.452,2.159H29.725a2.33,2.33,0,0,0,2.456-2.159V17.355a8.549,8.549,0,0,1-1,.076A8.189,8.189,0,0,1,28.673,17.038Zm6.877-5.469L32.53,4.627H25.315L26.7,12.713c.27,1.527,2.17,2.712,4.479,2.712,2.491,0,4.51-1.382,4.51-3.085a2.206,2.206,0,0,0-.14-.771Z" transform="translate(-4.113 -4.627)" fill="#ff4545"/>
</svg>
