<svg id="Icon_ionic-ios-rocket" data-name="Icon ionic-ios-rocket" xmlns="http://www.w3.org/2000/svg" width="33.277" height="29.234" viewBox="0 0 33.277 29.234">
  <path id="Tracé_106" data-name="Tracé 106" d="M36.467,3.769A.333.333,0,0,0,36.2,3.53c-4.35-.935-14.4,2.4-19.848,7.186a21.632,21.632,0,0,0-2.647,2.749,11.1,11.1,0,0,0-4.79.527C4.88,15.553,3.7,19.631,3.376,21.382a.671.671,0,0,0,.784.731l6.485-.626a11.167,11.167,0,0,0,.088,1.287,1.22,1.22,0,0,0,.424.78l2.511,2.208a1.54,1.54,0,0,0,.888.373c.344.035.84.07,1.455.077l-.712,5.7a.682.682,0,0,0,.832.689c1.991-.281,6.637-1.315,8.4-4.866a7.736,7.736,0,0,0,.608-4.2,23.116,23.116,0,0,0,3.135-2.327C33.748,16.425,37.515,7.784,36.467,3.769ZM23.416,15.012a2.752,2.752,0,0,1,0-4.247,3.752,3.752,0,0,1,4.83,0,2.752,2.752,0,0,1,0,4.247A3.752,3.752,0,0,1,23.416,15.012Z" transform="translate(-3.366 -3.372)" fill="#ff4545"/>
  <path id="Tracé_107" data-name="Tracé 107" d="M13.16,26.754h0a3.268,3.268,0,0,1-1.583.563A2.032,2.032,0,0,1,9.1,25.137a2.456,2.456,0,0,1,.632-1.385l.008-.007c.184-.162.032-.429-.224-.4a3.9,3.9,0,0,0-2.151.921c-1.439,1.266-1.575,5.962-1.575,5.962s5.35-.12,6.789-1.385a3.075,3.075,0,0,0,1.048-1.891A.276.276,0,0,0,13.16,26.754Z" transform="translate(-3.033 -3.372)" fill="#ff4545"/>
</svg>
