<svg id="Icon_material-photo-camera" data-name="Icon material-photo-camera" xmlns="http://www.w3.org/2000/svg" width="45.204" height="40.684" viewBox="0 0 45.204 40.684">
  <path id="Tracé_67" data-name="Tracé 67" d="M27.665,20.433A7.233,7.233,0,1,1,20.433,13.2,7.233,7.233,0,0,1,27.665,20.433Z" transform="translate(2.169 2.169)" fill="#ff4545"/>
  <path id="Tracé_68" data-name="Tracé 68" d="M18.821,3,14.685,7.52H7.52A4.534,4.534,0,0,0,3,12.041V39.163a4.534,4.534,0,0,0,4.52,4.52H43.684a4.534,4.534,0,0,0,4.52-4.52V12.041a4.534,4.534,0,0,0-4.52-4.52H36.519L32.383,3ZM25.6,36.9A11.3,11.3,0,1,1,36.9,25.6,11.305,11.305,0,0,1,25.6,36.9Z" transform="translate(-3 -3)" fill="#ff4545"/>
</svg>
