<svg xmlns="http://www.w3.org/2000/svg" width="54.759" height="44.119" viewBox="0 0 54.759 44.119">
  <path id="Icon_awesome-tshirt" data-name="Icon awesome-tshirt" d="M51.925,7.938,35.908,0c-1.653,2.287-5.314,3.883-9.584,3.883S18.395,2.287,16.741,0L.725,7.938A1.326,1.326,0,0,0,.132,9.707l4.705,9.419a1.326,1.326,0,0,0,1.769.592l4.656-2.279a1.314,1.314,0,0,1,1.892,1.185V39.486a2.63,2.63,0,0,0,2.632,2.632H36.846a2.63,2.63,0,0,0,2.632-2.632V18.616a1.317,1.317,0,0,1,1.892-1.185l4.656,2.279a1.312,1.312,0,0,0,1.769-.592l4.714-9.411a1.313,1.313,0,0,0-.584-1.769Z" transform="translate(1.101 1)" fill="#ff4545" stroke="#ff4545" stroke-linejoin="round" stroke-width="2"/>
</svg>
