<svg id="Icon_ionic-logo-game-controller-b" data-name="Icon ionic-logo-game-controller-b" xmlns="http://www.w3.org/2000/svg" width="49.494" height="35.337" viewBox="0 0 49.494 35.337">
  <path id="Tracé_65" data-name="Tracé 65" d="M10.2,14.386a2.066,2.066,0,1,0,2.056,2.066A2.059,2.059,0,0,0,10.2,14.386Z" transform="translate(1.151 -2.341)" fill="#ff4545"/>
  <path id="Tracé_66" data-name="Tracé 66" d="M50.226,23.636C47.884,13.86,45.41,8.668,40.45,7.2a9.853,9.853,0,0,0-2.839-.442C34.562,6.757,32.43,8.381,27,8.381S19.429,6.757,16.38,6.757a9.744,9.744,0,0,0-2.839.442c-4.96,1.469-7.434,6.672-9.776,16.437S1.854,40.47,4.616,41.785A3.223,3.223,0,0,0,6,42.094c2.4,0,4.982-2.629,7.478-5.744C16.314,32.8,17.021,32.7,25.659,32.7h2.684c8.627,0,9.345.088,12.184,3.645,2.485,3.115,5.081,5.744,7.478,5.744a3.259,3.259,0,0,0,1.381-.309C52.137,40.459,52.557,33.4,50.226,23.636ZM13.652,25.26a4.375,4.375,0,1,1,4.33-4.374A4.361,4.361,0,0,1,13.652,25.26Zm19.1-2.154a2.22,2.22,0,1,1,2.22-2.22A2.22,2.22,0,0,1,32.751,23.106ZM37.6,27.955a2.215,2.215,0,1,1,2.22-2.209A2.218,2.218,0,0,1,37.6,27.955Zm0-9.7a2.22,2.22,0,1,1,2.22-2.22A2.22,2.22,0,0,1,37.6,18.256Zm4.849,4.849a2.22,2.22,0,1,1,2.22-2.22A2.22,2.22,0,0,1,42.45,23.106Z" transform="translate(-2.247 -6.757)" fill="#ff4545"/>
</svg>
