<svg xmlns="http://www.w3.org/2000/svg" width="59.844" height="53.786" viewBox="0 0 59.844 53.786">
  <path id="Icon_awesome-file-signature" data-name="Icon awesome-file-signature" d="M22.667,44.556a1.149,1.149,0,0,0-1.057-.685,1.131,1.131,0,0,0-1.041.65l-.8,1.611a1.655,1.655,0,0,1-3.063-.22l-1.749-5.3-1.1,3.349a4.49,4.49,0,0,1-4.26,3.1H8.312a1.681,1.681,0,0,1,0-3.362H9.6a1.166,1.166,0,0,0,1.105-.8l1.89-5.74a2.486,2.486,0,0,1,4.732,0l1.442,4.374a4.634,4.634,0,0,1,6.857,1.488,1.179,1.179,0,0,0,.972.658V35.049L39.9,21.7v-4.89H25.766a2.515,2.515,0,0,1-2.494-2.521V0H2.494A2.5,2.5,0,0,0,0,2.521V51.265a2.5,2.5,0,0,0,2.494,2.521H37.4A2.5,2.5,0,0,0,39.9,51.265v-4.2l-13.3-.012A4.457,4.457,0,0,1,22.667,44.556ZM39.9,12.806a2.527,2.527,0,0,0-.727-1.775L29,.735A2.478,2.478,0,0,0,27.231,0H26.6V13.446H39.9ZM29.922,36.448V43.7H37.09l16.8-17.1L46.835,19.47Zm29.147-18.87L55.758,14.23a2.626,2.626,0,0,0-3.741,0l-2.831,2.863,7.052,7.131,2.831-2.863A2.7,2.7,0,0,0,59.069,17.578Z" fill="#ff4545"/>
</svg>
